<svg width="1920pt" height="219pt" viewBox="0 0 1920 219" version="1.1" xmlns="http://www.w3.org/2000/svg">
<g id="#292323f4">
<path fill="#292323" opacity="0.96" d=" M 10.88 10.67 C 70.84 10.13 130.80 9.79 190.76 9.35 C 169.03 57.38 147.25 105.40 125.45 153.41 C 124.06 156.58 122.44 159.67 121.33 162.96 C 144.04 162.80 166.75 162.94 189.47 162.89 C 189.72 177.66 189.15 192.46 189.76 207.22 C 130.62 207.17 71.49 207.23 12.35 207.20 C 13.21 192.47 12.43 177.65 12.75 162.89 C 35.70 162.91 58.66 162.86 81.62 162.92 C 58.17 112.11 34.40 61.45 10.88 10.67 M 17.98 15.10 C 40.84 64.43 63.68 113.80 86.86 162.99 C 90.66 162.85 94.46 162.88 98.27 162.87 C 99.85 162.87 101.43 162.88 103.01 162.88 C 107.37 162.88 111.74 162.86 116.10 162.93 C 138.81 113.39 161.06 63.65 183.74 14.09 C 128.49 14.11 73.23 14.76 17.98 15.10 M 17.25 167.45 C 17.26 179.70 17.29 191.96 17.24 204.21 C 73.14 204.27 129.03 204.23 184.93 204.23 C 184.85 191.95 185.00 179.67 184.86 167.40 C 128.99 167.52 73.12 167.42 17.25 167.45 Z" />
<path fill="#292323" opacity="0.96" d=" M 51.56 176.96 C 55.12 175.89 59.25 175.90 62.85 176.89 C 62.19 177.27 60.87 178.03 60.21 178.41 C 60.20 180.73 60.19 183.05 60.19 185.38 C 62.90 183.18 65.58 180.92 68.11 178.51 C 67.49 177.97 66.25 176.88 65.63 176.34 C 68.44 176.28 71.24 176.27 74.05 176.31 C 71.16 179.25 67.33 181.45 64.37 184.49 C 67.80 188.78 70.71 193.54 75.10 196.96 C 71.32 197.16 67.53 197.22 63.77 196.79 C 64.27 196.32 65.26 195.37 65.75 194.90 C 64.04 192.40 62.22 189.96 60.16 187.73 C 60.15 190.11 60.19 192.49 60.23 194.88 C 61.15 195.48 62.08 196.07 63.03 196.64 C 59.40 196.90 55.03 198.12 51.80 196.13 C 52.79 195.75 53.79 195.39 54.79 195.03 C 54.74 189.46 54.79 183.88 54.76 178.31 C 53.96 177.97 52.36 177.30 51.56 176.96 Z" />
<path fill="#292323" opacity="0.96" d=" M 78.37 184.58 C 76.38 181.13 79.09 176.47 82.87 175.89 C 85.52 175.18 88.16 178.20 90.42 175.80 C 90.43 178.37 90.54 180.95 90.60 183.52 C 88.58 182.75 88.80 179.97 87.03 178.87 C 85.31 177.28 82.00 177.37 81.35 179.99 C 83.18 184.06 89.08 184.00 91.07 188.07 C 93.21 191.87 90.23 197.10 85.92 197.35 C 83.86 197.67 81.91 196.81 80.01 196.19 C 79.47 196.58 78.39 197.37 77.85 197.76 C 77.71 194.74 77.64 191.71 77.91 188.70 C 79.79 190.90 80.31 194.57 83.54 195.38 C 85.82 196.48 89.34 193.83 87.29 191.49 C 84.59 188.85 80.14 188.21 78.37 184.58 Z" />
<path fill="#292323" opacity="0.96" d=" M 114.61 176.92 C 117.58 175.75 120.85 176.46 123.95 176.30 C 127.06 176.32 131.09 176.22 132.73 179.46 C 134.63 182.62 132.55 186.22 129.62 187.79 C 131.79 191.00 133.94 194.24 136.71 196.97 C 134.49 197.06 132.26 197.22 130.05 196.99 C 127.47 194.11 125.97 190.39 123.11 187.73 C 123.09 190.15 123.13 192.56 123.17 194.97 C 124.36 195.33 125.27 196.01 125.91 197.01 C 122.19 197.11 118.45 197.27 114.76 196.76 C 115.65 195.98 116.70 195.45 117.75 194.92 C 117.79 189.40 117.74 183.88 117.78 178.35 C 116.99 178.00 115.40 177.28 114.61 176.92 M 122.89 186.24 C 125.11 186.24 128.52 186.01 128.18 182.92 C 129.08 179.74 125.96 177.05 122.90 178.10 C 122.67 180.80 122.86 183.53 122.89 186.24 Z" />
<path fill="#292323" opacity="0.96" d=" M 156.51 176.40 C 158.81 175.15 161.37 176.21 163.63 176.99 C 164.12 176.70 165.10 176.14 165.59 175.85 C 165.22 178.35 166.91 181.76 164.92 183.63 C 164.08 181.21 162.90 178.28 160.00 177.86 C 158.32 177.32 155.89 179.12 156.90 180.92 C 159.34 183.74 163.56 184.28 165.84 187.33 C 167.88 190.15 167.00 194.50 164.03 196.33 C 161.41 198.17 158.06 197.30 155.33 196.22 C 154.75 196.57 153.59 197.27 153.02 197.62 C 153.50 194.77 152.07 191.25 153.84 188.81 C 154.67 191.82 156.39 195.51 160.02 195.58 C 162.21 195.86 163.99 193.14 162.41 191.40 C 159.95 189.08 156.26 188.38 154.18 185.59 C 151.93 182.67 153.08 177.87 156.51 176.40 Z" />
<path fill="#292323" opacity="0.96" d=" M 30.30 176.30 C 35.93 176.32 41.56 176.26 47.19 176.36 C 47.19 178.67 47.19 180.98 47.09 183.29 C 45.64 182.42 45.28 180.67 44.37 179.37 C 42.76 177.95 40.41 178.47 38.45 178.28 C 38.44 180.79 38.44 183.30 38.55 185.81 C 41.33 185.19 41.26 182.00 43.15 180.42 C 42.86 184.48 43.83 188.80 42.30 192.65 C 42.16 192.19 41.87 191.28 41.73 190.82 L 41.58 190.30 C 41.35 188.64 39.88 187.84 38.53 187.18 C 38.45 189.70 38.43 192.22 38.45 194.75 C 40.39 194.81 42.50 195.26 44.30 194.33 C 46.32 193.32 46.67 190.77 48.40 189.47 C 48.15 191.97 48.40 194.80 47.12 197.02 C 41.50 197.17 35.87 197.08 30.25 196.99 C 30.91 195.72 32.91 195.67 33.14 194.17 C 33.29 189.14 33.31 184.10 33.13 179.07 C 32.42 178.38 31.01 176.99 30.30 176.30 Z" />
<path fill="#292323" opacity="0.96" d=" M 95.19 176.33 C 99.43 176.43 103.76 175.89 107.94 176.77 C 111.35 177.56 113.17 181.86 111.34 184.87 C 109.77 187.85 106.11 187.87 103.18 188.18 C 103.19 190.41 103.19 192.65 103.25 194.88 C 104.29 195.43 105.35 195.96 106.25 196.73 C 102.82 197.18 99.32 197.28 95.88 196.93 L 95.18 195.98 C 95.88 195.76 97.30 195.33 98.01 195.11 C 98.13 189.79 98.24 184.45 98.02 179.14 C 97.31 178.44 95.90 177.03 95.19 176.33 M 103.27 178.01 C 103.17 180.75 103.18 183.49 103.23 186.23 C 108.01 186.14 107.91 178.32 103.27 178.01 Z" />
<path fill="#292323" opacity="0.96" d=" M 138.11 176.32 C 141.87 176.28 145.63 176.27 149.38 176.37 C 147.64 177.26 145.96 178.83 146.35 180.96 C 146.33 185.00 146.28 189.05 146.37 193.10 C 146.15 195.03 148.11 195.97 149.35 196.99 C 145.99 197.07 142.63 197.11 139.27 197.13 C 139.01 196.33 138.76 195.54 138.52 194.74 C 138.67 194.52 138.97 194.08 139.12 193.86 L 139.63 194.19 C 139.69 194.66 139.81 195.59 139.87 196.06 C 141.88 193.49 140.91 190.03 141.15 187.03 C 140.80 183.32 142.56 178.23 138.11 176.32 Z" />
<path fill="#292323" opacity="0.96" d=" M 11.91 207.98 C 40.60 207.54 69.30 207.96 98.00 207.76 C 128.71 207.94 159.44 207.56 190.15 207.96 C 187.61 209.28 184.68 208.67 181.94 208.78 C 127.95 208.77 73.97 208.77 19.98 208.79 C 17.28 208.70 14.42 209.22 11.91 207.98 Z" />
</g>
<g id="#ef4637ff">
<path fill="#ef4637" opacity="1.00" d=" M 17.98 15.10 C 73.23 14.76 128.49 14.11 183.74 14.09 C 161.06 63.65 138.81 113.39 116.10 162.93 C 111.74 162.86 107.37 162.88 103.01 162.88 C 106.27 155.89 109.91 149.09 113.03 142.04 C 118.81 128.44 125.41 115.21 131.83 101.90 C 145.35 73.61 158.81 45.28 172.03 16.85 C 167.33 21.57 163.42 26.97 159.25 32.14 C 144.68 50.32 130.29 68.65 115.45 86.60 C 111.22 66.10 107.00 45.59 102.78 25.09 C 102.18 22.17 101.37 19.30 100.43 16.48 C 99.60 19.81 98.85 23.17 98.39 26.57 C 98.70 26.30 99.33 25.75 99.64 25.47 C 97.87 26.43 97.84 28.54 97.35 30.22 C 93.51 49.08 90.15 68.04 85.77 86.78 C 66.77 63.32 48.32 39.41 29.18 16.06 C 38.13 36.46 48.03 56.43 57.47 76.60 C 71.12 105.33 84.66 134.12 98.27 162.87 C 94.46 162.88 90.66 162.85 86.86 162.99 C 63.68 113.80 40.84 64.43 17.98 15.10 Z" />
</g>
<g id="#ffffffff">
<path fill="#ffffff" opacity="1.00" d=" M 57.47 76.60 C 48.03 56.43 38.13 36.46 29.18 16.06 C 48.32 39.41 66.77 63.32 85.77 86.78 C 90.15 68.04 93.51 49.08 97.35 30.22 C 97.84 28.54 97.87 26.43 99.64 25.47 C 96.06 48.61 91.76 71.63 87.94 94.73 C 75.03 78.92 63.20 62.26 50.76 46.09 C 46.52 40.72 42.78 34.95 38.14 29.90 C 56.07 66.33 73.68 102.93 91.49 139.42 C 94.55 145.51 97.26 151.78 100.59 157.73 C 107.86 145.23 113.65 131.95 120.07 119.02 C 132.17 94.20 144.38 69.45 156.67 44.73 C 159.30 39.40 162.29 34.23 164.32 28.63 C 160.83 32.06 158.16 36.20 155.19 40.07 C 141.35 58.29 127.68 76.65 113.46 94.57 C 111.12 84.15 109.65 73.56 107.98 63.02 C 105.77 49.54 102.76 36.21 100.63 22.72 C 100.07 23.68 98.95 25.61 98.39 26.57 C 98.85 23.17 99.60 19.81 100.43 16.48 C 101.37 19.30 102.18 22.17 102.78 25.09 C 107.00 45.59 111.22 66.10 115.45 86.60 C 130.29 68.65 144.68 50.32 159.25 32.14 C 163.42 26.97 167.33 21.57 172.03 16.85 C 158.81 45.28 145.35 73.61 131.83 101.90 C 125.41 115.21 118.81 128.44 113.03 142.04 C 109.91 149.09 106.27 155.89 103.01 162.88 C 101.43 162.88 99.85 162.87 98.27 162.87 C 84.66 134.12 71.12 105.33 57.47 76.60 Z" />
<path fill="#ffffff" opacity="1.00" d=" M 554.59 67.61 C 563.55 59.66 577.34 58.94 587.87 64.04 C 593.94 66.97 598.53 72.24 601.61 78.15 C 596.70 81.08 591.72 83.91 586.82 86.86 C 584.83 82.97 581.71 79.22 577.22 78.33 C 573.24 77.53 567.97 77.56 565.55 81.42 C 563.80 84.40 565.64 88.11 568.55 89.50 C 577.28 94.30 587.91 94.86 596.00 100.97 C 607.00 108.93 606.08 127.56 595.33 135.35 C 586.73 141.70 575.13 142.33 564.99 140.16 C 555.58 138.18 547.64 131.31 544.08 122.42 C 549.03 119.30 554.20 116.55 559.19 113.48 C 561.54 118.65 566.01 123.19 571.88 123.89 C 576.17 124.32 581.27 124.66 584.72 121.57 C 587.63 118.76 586.10 113.68 582.52 112.21 C 573.64 107.67 562.83 107.40 554.92 100.84 C 544.68 92.99 545.08 75.87 554.59 67.61 Z" />
<path fill="#ffffff" opacity="1.00" d=" M 1473.02 65.97 C 1487.56 55.53 1510.74 61.46 1517.84 78.10 C 1513.14 81.27 1508.04 83.86 1503.21 86.84 C 1501.30 83.26 1498.63 79.70 1494.52 78.57 C 1490.60 77.58 1485.60 77.33 1482.60 80.53 C 1480.19 83.01 1481.23 87.31 1484.10 88.95 C 1490.45 92.96 1498.09 93.94 1504.91 96.87 C 1510.51 99.11 1516.06 102.75 1518.46 108.52 C 1521.61 116.37 1520.51 126.17 1514.75 132.56 C 1509.52 138.35 1501.56 140.87 1493.96 141.20 C 1484.73 141.73 1474.85 139.63 1467.90 133.20 C 1464.57 130.30 1462.38 126.42 1460.47 122.50 C 1465.36 119.26 1470.58 116.54 1475.62 113.53 C 1477.79 118.20 1481.58 122.43 1486.79 123.60 C 1490.97 124.38 1495.67 124.66 1499.59 122.70 C 1502.61 121.25 1503.72 117.02 1501.56 114.38 C 1499.13 111.56 1495.32 110.61 1491.95 109.42 C 1483.94 107.06 1475.16 105.13 1469.15 98.87 C 1460.46 89.66 1462.55 73.00 1473.02 65.97 Z" />
<path fill="#ffffff" opacity="1.00" d=" M 1797.95 61.98 C 1814.01 57.93 1832.42 64.31 1841.63 78.30 C 1836.67 81.27 1831.64 84.13 1826.61 86.95 C 1818.72 75.70 1800.18 74.86 1790.93 84.87 C 1782.12 94.18 1782.61 111.16 1792.99 119.14 C 1799.54 124.22 1808.54 125.14 1816.44 123.33 C 1822.21 121.98 1827.04 117.66 1829.20 112.16 C 1822.27 111.99 1815.35 112.12 1808.44 112.08 C 1808.43 106.98 1808.48 101.89 1808.41 96.79 C 1821.31 96.78 1834.21 96.78 1847.12 96.79 C 1847.34 105.02 1847.03 113.58 1843.36 121.12 C 1839.36 129.89 1831.37 136.55 1822.19 139.33 C 1808.22 143.58 1791.95 140.92 1780.79 131.26 C 1768.80 121.18 1764.29 103.69 1769.07 88.89 C 1773.05 75.64 1784.47 65.05 1797.95 61.98 Z" />
<path fill="#ffffff" opacity="1.00" d=" M 420.01 62.40 C 435.99 62.42 451.96 62.45 467.94 62.39 C 468.19 67.99 467.76 73.59 468.05 79.19 C 457.88 79.20 447.71 79.21 437.54 79.19 C 437.40 83.53 437.47 87.88 437.48 92.23 C 446.71 92.25 455.94 92.25 465.17 92.23 C 465.20 97.80 465.17 103.38 465.18 108.95 C 455.93 109.04 446.67 108.73 437.43 109.13 C 437.49 113.69 437.45 118.26 437.47 122.82 C 447.84 123.01 458.22 122.71 468.60 122.98 C 468.48 128.58 468.54 134.18 468.56 139.79 C 452.35 139.82 436.14 139.81 419.94 139.79 C 419.98 114.00 419.83 88.20 420.01 62.40 Z" />
<path fill="#ffffff" opacity="1.00" d=" M 522.27 62.39 C 528.90 62.43 535.53 62.44 542.16 62.38 C 533.51 74.96 524.84 87.54 516.09 100.05 C 525.23 113.28 534.26 126.57 543.37 139.82 C 536.69 139.77 530.00 139.85 523.32 139.77 C 515.10 127.83 506.89 115.89 498.59 104.01 C 497.99 115.92 498.51 127.88 498.34 139.81 C 492.51 139.80 486.69 139.81 480.88 139.81 C 480.87 114.01 480.88 88.21 480.87 62.42 C 486.70 62.42 492.52 62.42 498.35 62.41 C 498.33 73.53 498.33 84.66 498.35 95.78 C 500.36 93.93 501.66 91.49 503.27 89.30 C 509.63 80.35 515.85 71.30 522.27 62.39 Z" />
<path fill="#ffffff" opacity="1.00" d=" M 681.84 62.49 C 697.85 62.31 713.86 62.48 729.87 62.40 C 729.88 68.00 729.78 73.59 729.93 79.19 C 719.74 79.25 709.54 79.12 699.36 79.26 C 699.34 83.58 699.32 87.91 699.38 92.23 C 708.63 92.26 717.87 92.23 727.12 92.25 C 727.10 97.81 727.11 103.38 727.11 108.95 C 717.85 109.03 708.58 108.76 699.33 109.11 C 699.36 113.67 699.35 118.23 699.33 122.79 C 709.68 122.97 720.03 122.86 730.38 122.85 C 730.45 128.45 730.37 134.06 730.44 139.66 C 714.26 139.98 698.07 139.72 681.89 139.81 C 681.84 114.04 681.95 88.26 681.84 62.49 Z" />
<path fill="#ffffff" opacity="1.00" d=" M 1113.36 62.43 C 1119.20 62.39 1125.05 62.46 1130.90 62.38 C 1130.93 88.16 1130.89 113.94 1130.91 139.72 C 1125.06 139.68 1119.21 139.73 1113.36 139.68 C 1113.42 113.93 1113.42 88.18 1113.36 62.43 Z" />
<path fill="#ffffff" opacity="1.00" d=" M 1166.22 62.39 C 1173.69 62.45 1181.17 62.40 1188.65 62.41 C 1197.42 88.18 1206.14 113.96 1214.94 139.71 C 1208.50 139.64 1202.06 139.81 1195.63 139.61 C 1194.44 135.57 1193.14 131.57 1191.84 127.57 C 1182.21 127.48 1172.59 127.52 1162.97 127.55 C 1161.62 131.59 1160.41 135.68 1159.04 139.71 C 1152.66 139.70 1146.28 139.69 1139.90 139.72 C 1148.66 113.94 1157.34 88.13 1166.22 62.39 M 1168.27 111.10 C 1174.35 111.09 1180.44 111.09 1186.53 111.10 C 1183.59 101.63 1180.63 92.16 1177.47 82.77 C 1174.02 92.07 1171.29 101.65 1168.27 111.10 Z" />
<path fill="#ffffff" opacity="1.00" d=" M 1213.06 62.37 C 1232.14 62.51 1251.22 62.33 1270.30 62.46 C 1270.22 68.04 1270.25 73.62 1270.28 79.20 C 1263.66 79.19 1257.05 79.21 1250.45 79.19 C 1250.31 99.37 1250.34 119.55 1250.43 139.73 C 1244.59 139.89 1238.75 139.76 1232.92 139.81 C 1232.85 119.61 1232.96 99.41 1232.87 79.21 C 1226.21 79.18 1219.56 79.21 1212.91 79.20 C 1212.98 73.59 1212.76 67.97 1213.06 62.37 Z" />
<path fill="#ffffff" opacity="1.00" d=" M 1323.77 62.47 C 1329.60 62.39 1335.45 62.38 1341.29 62.47 C 1341.18 88.25 1341.27 114.03 1341.25 139.81 C 1336.89 139.81 1332.54 139.80 1328.20 139.81 C 1318.10 125.88 1308.44 111.62 1298.16 97.84 C 1298.01 111.83 1298.14 125.82 1298.10 139.81 C 1292.26 139.81 1286.44 139.80 1280.61 139.81 C 1280.60 114.01 1280.64 88.21 1280.59 62.41 C 1285.01 62.44 1289.44 62.36 1293.88 62.48 C 1301.09 72.82 1308.47 83.06 1315.75 93.35 C 1318.46 96.95 1320.72 100.89 1323.78 104.22 C 1323.82 90.30 1323.84 76.38 1323.77 62.47 Z" />
<path fill="#ffffff" opacity="1.00" d=" M 1607.15 62.40 C 1613.00 62.44 1618.86 62.40 1624.72 62.42 C 1624.65 88.21 1624.67 114.00 1624.71 139.79 C 1620.27 139.79 1615.83 139.89 1611.41 139.70 C 1601.48 125.73 1591.81 111.54 1581.49 97.86 C 1581.39 111.83 1581.44 125.80 1581.47 139.78 C 1575.62 139.84 1569.78 139.79 1563.95 139.81 C 1563.89 114.01 1563.95 88.22 1563.92 62.43 C 1568.30 62.40 1572.69 62.45 1577.08 62.38 C 1587.19 76.24 1596.83 90.45 1607.03 104.24 C 1607.33 90.30 1607.08 76.35 1607.15 62.40 Z" />
<path fill="#ffffff" opacity="1.00" d=" M 1640.27 62.43 C 1656.27 62.43 1672.27 62.37 1688.27 62.46 C 1688.19 68.04 1688.22 73.62 1688.24 79.20 C 1678.11 79.21 1667.99 79.18 1657.87 79.22 C 1657.82 83.56 1657.84 87.89 1657.85 92.23 C 1667.08 92.27 1676.30 92.21 1685.54 92.26 C 1685.51 97.79 1685.45 103.33 1685.58 108.86 C 1676.33 109.12 1667.08 108.74 1657.84 109.07 C 1657.84 113.66 1657.82 118.26 1657.86 122.85 C 1668.21 122.90 1678.56 122.86 1688.91 122.88 C 1688.87 128.51 1688.87 134.15 1688.92 139.79 C 1672.71 139.82 1656.50 139.81 1640.29 139.79 C 1640.32 114.01 1640.35 88.22 1640.27 62.43 Z" />
<path fill="#ffffff" opacity="1.00" d=" M 1701.16 62.41 C 1711.44 62.43 1721.71 62.41 1732.00 62.42 C 1739.45 62.28 1746.85 65.54 1751.82 71.10 C 1759.35 79.25 1760.92 92.53 1754.76 101.92 C 1752.28 106.07 1748.36 109.02 1744.32 111.53 C 1749.96 120.87 1755.28 130.40 1760.82 139.81 C 1754.53 139.81 1748.26 139.79 1741.99 139.82 C 1736.95 131.33 1732.21 122.68 1727.18 114.19 C 1724.35 114.22 1721.54 114.21 1718.74 114.23 C 1718.69 122.75 1718.69 131.27 1718.74 139.79 C 1712.87 139.82 1707.01 139.82 1701.15 139.79 C 1701.20 114.00 1701.19 88.20 1701.16 62.41 M 1718.72 78.79 C 1718.70 85.50 1718.68 92.20 1718.74 98.91 C 1723.16 98.89 1727.59 98.96 1732.03 98.91 C 1735.65 99.08 1738.90 96.42 1740.23 93.16 C 1742.61 87.90 1739.94 80.56 1734.11 79.07 C 1729.01 78.45 1723.84 78.94 1718.72 78.79 Z" />
<path fill="#ffffff" opacity="1.00" d=" M 239.76 62.41 C 249.85 62.45 259.94 62.36 270.03 62.45 C 278.39 62.65 286.54 67.03 291.24 73.96 C 297.39 82.75 297.29 95.30 291.07 104.03 C 286.35 110.83 278.26 115.11 269.99 115.30 C 265.71 115.42 261.43 115.33 257.15 115.32 C 256.97 123.48 257.12 131.65 257.07 139.81 C 251.30 139.81 245.54 139.80 239.78 139.81 C 239.76 114.01 239.81 88.21 239.76 62.41 M 257.08 78.80 C 257.07 85.50 257.05 92.20 257.09 98.90 C 262.14 98.62 267.37 99.60 272.29 98.28 C 280.07 95.36 280.24 82.77 272.59 79.58 C 267.59 78.04 262.23 79.08 257.08 78.80 Z" />
<path fill="#ffffff" opacity="1.00" d=" M 300.40 62.42 C 319.57 62.46 338.73 62.33 357.89 62.49 C 357.73 68.05 357.76 73.62 357.87 79.19 C 351.22 79.23 344.57 79.15 337.92 79.24 C 337.89 99.43 337.89 119.61 337.92 139.80 C 332.07 139.80 326.22 139.83 320.37 139.78 C 320.40 119.58 320.48 99.38 320.33 79.19 C 313.69 79.21 307.04 79.20 300.39 79.20 C 300.46 73.61 300.44 68.01 300.40 62.42 Z" />
<path fill="#ffffff" opacity="1.00" d=" M 614.48 62.42 C 624.31 62.42 634.14 62.41 643.97 62.42 C 650.98 62.39 657.97 65.14 662.96 70.09 C 669.21 76.13 672.03 85.43 670.27 93.93 C 668.76 102.63 662.39 110.17 654.20 113.37 C 647.21 116.32 639.47 115.09 632.11 115.34 C 631.99 123.49 632.08 131.64 632.06 139.80 C 626.21 139.82 620.36 139.78 614.52 139.82 C 614.47 114.02 614.55 88.22 614.48 62.42 M 632.07 78.80 C 632.05 85.50 632.04 92.20 632.07 98.90 C 636.91 98.72 641.83 99.37 646.61 98.52 C 654.70 96.15 655.53 83.43 648.01 79.82 C 642.97 77.85 637.35 79.15 632.07 78.80 Z" />
<path fill="#ffffff" opacity="1.00" d=" M 742.94 62.43 C 753.29 62.40 763.64 62.42 774.00 62.42 C 782.62 62.31 791.14 66.79 795.88 73.99 C 800.98 81.43 801.93 91.71 797.78 99.79 C 795.31 104.87 790.95 108.70 786.13 111.48 C 791.74 120.78 796.96 130.32 802.59 139.61 C 796.27 139.78 789.94 139.72 783.62 139.65 C 778.82 131.33 774.19 122.90 769.23 114.68 C 766.70 113.56 763.38 114.53 760.58 114.20 C 760.39 122.69 760.50 131.19 760.52 139.69 C 754.69 139.72 748.86 139.68 743.03 139.71 C 742.83 113.96 743.01 88.19 742.94 62.43 M 760.50 78.80 C 760.49 85.51 760.44 92.21 760.53 98.91 C 765.06 98.88 769.60 98.97 774.13 98.90 C 777.98 98.94 781.25 95.87 782.36 92.33 C 784.35 86.96 781.07 79.73 775.10 78.93 C 770.24 78.59 765.36 78.87 760.50 78.80 Z" />
<path fill="#ffffff" opacity="1.00" d=" M 806.03 62.45 C 825.16 62.38 844.30 62.44 863.43 62.41 C 863.40 68.01 863.39 73.61 863.44 79.20 C 856.83 79.19 850.22 79.21 843.61 79.19 C 843.46 99.35 843.55 119.52 843.57 139.69 C 837.72 139.72 831.88 139.68 826.04 139.71 C 825.99 119.55 826.18 99.37 825.94 79.21 C 819.30 79.18 812.67 79.21 806.04 79.19 C 806.10 73.61 806.11 68.03 806.03 62.45 Z" />
<path fill="#ffffff" opacity="1.00" d=" M 861.32 139.70 C 870.11 113.93 878.78 88.11 887.65 62.37 C 895.12 62.48 902.59 62.38 910.07 62.42 C 918.83 88.18 927.64 113.93 936.31 139.72 C 929.94 139.68 923.56 139.70 917.19 139.71 C 915.82 135.66 914.61 131.56 913.23 127.51 C 903.75 127.58 894.26 127.44 884.78 127.58 C 882.73 131.17 881.97 135.58 880.68 139.57 C 874.23 139.86 867.77 139.63 861.32 139.70 M 898.67 82.81 C 895.65 92.23 892.63 101.65 889.67 111.09 C 895.75 111.09 901.84 111.09 907.92 111.10 C 905.57 102.96 902.79 94.96 900.33 86.86 C 899.87 85.47 899.56 84.00 898.67 82.81 Z" />
<path fill="#ffffff" opacity="1.00" d=" M 975.42 62.42 C 985.61 62.44 995.80 62.36 1005.99 62.45 C 1015.01 62.67 1023.78 67.79 1028.23 75.67 C 1035.33 87.44 1031.22 104.36 1019.27 111.29 C 1011.52 116.47 1001.89 115.24 993.08 115.34 C 992.77 123.46 993.09 131.59 992.95 139.72 C 987.09 139.65 981.23 139.78 975.38 139.63 C 975.52 113.89 975.45 88.16 975.42 62.42 M 993.16 78.74 C 992.73 85.44 993.02 92.16 992.98 98.87 C 997.83 98.74 1002.77 99.37 1007.57 98.52 C 1015.54 96.16 1016.49 83.72 1009.20 79.95 C 1004.19 77.72 998.47 79.26 993.16 78.74 Z" />
<path fill="#ffffff" opacity="1.00" d=" M 1042.99 62.45 C 1053.32 62.38 1063.66 62.43 1074.00 62.42 C 1080.50 62.34 1086.96 64.81 1091.78 69.18 C 1098.89 75.46 1102.00 85.75 1099.70 94.94 C 1097.89 102.17 1092.54 107.92 1086.19 111.54 C 1091.86 120.81 1097.06 130.35 1102.66 139.66 C 1096.33 139.58 1089.94 140.03 1083.66 139.45 C 1078.65 131.11 1074.06 122.51 1069.02 114.18 C 1066.21 114.23 1063.42 114.22 1060.63 114.21 C 1060.50 122.70 1060.57 131.19 1060.60 139.68 C 1054.75 139.72 1048.91 139.69 1043.07 139.71 C 1043.02 113.96 1043.18 88.20 1042.99 62.45 M 1060.58 78.80 C 1060.57 85.50 1060.53 92.21 1060.61 98.91 C 1065.10 98.88 1069.60 98.96 1074.10 98.90 C 1078.42 99.00 1081.91 95.24 1082.74 91.21 C 1083.99 85.98 1080.65 79.56 1075.03 78.91 C 1070.22 78.61 1065.39 78.86 1060.58 78.80 Z" />
<path fill="#ffffff" opacity="1.00" d=" M 1350.28 139.80 C 1359.09 114.00 1367.77 88.15 1376.65 62.37 C 1384.11 62.47 1391.58 62.39 1399.06 62.42 C 1407.91 88.19 1416.54 114.03 1425.43 139.79 C 1419.01 139.81 1412.59 139.82 1406.17 139.79 C 1404.87 135.69 1403.60 131.59 1402.24 127.52 C 1392.60 127.58 1382.96 127.41 1373.33 127.61 C 1372.10 131.68 1370.74 135.70 1369.54 139.76 C 1363.11 139.85 1356.69 139.79 1350.28 139.80 M 1387.71 82.77 C 1384.71 92.20 1381.51 101.57 1378.80 111.08 C 1384.85 111.10 1390.90 111.09 1396.96 111.09 C 1393.89 101.65 1391.29 92.00 1387.71 82.77 Z" />
<path fill="#ffffff" opacity="1.00" d=" M 1530.87 62.42 C 1536.69 62.42 1542.52 62.42 1548.35 62.41 C 1548.32 88.21 1548.33 114.01 1548.34 139.81 C 1542.51 139.81 1536.70 139.80 1530.88 139.81 C 1530.86 114.01 1530.89 88.21 1530.87 62.42 Z" />
<path fill="#ffffff" opacity="1.00" d=" M 1859.44 62.43 C 1865.31 62.42 1871.18 62.39 1877.07 62.45 C 1876.92 88.22 1877.11 113.99 1877.04 139.77 C 1871.19 139.85 1865.34 139.76 1859.50 139.84 C 1859.41 114.03 1859.54 88.23 1859.44 62.43 Z" />
<path fill="#ffffff" opacity="1.00" d=" M 362.08 121.07 C 367.91 118.77 375.02 122.79 376.00 128.98 C 377.26 135.01 372.15 141.36 365.97 141.26 C 359.61 141.69 354.07 135.20 355.44 129.00 C 356.07 125.43 358.69 122.32 362.08 121.07 Z" />
<path fill="#ffffff" opacity="1.00" d=" M 17.25 167.45 C 73.12 167.42 128.99 167.52 184.86 167.40 C 185.00 179.67 184.85 191.95 184.93 204.23 C 129.03 204.23 73.14 204.27 17.24 204.21 C 17.29 191.96 17.26 179.70 17.25 167.45 M 20.94 170.66 C 20.98 180.80 21.00 190.94 21.10 201.09 C 74.47 201.12 127.84 201.10 181.22 201.10 C 181.25 190.94 181.22 180.79 181.23 170.63 C 127.80 170.63 74.37 170.58 20.94 170.66 Z" />
<path fill="#ffffff" opacity="1.00" d=" M 78.85 176.84 C 81.23 174.14 85.21 174.30 88.24 175.68 C 88.68 175.35 89.55 174.71 89.98 174.39 C 90.34 174.69 91.05 175.30 91.40 175.61 C 91.12 178.72 92.81 182.62 90.09 184.99 C 92.70 187.54 93.78 191.77 91.63 194.94 C 89.45 198.72 84.31 199.57 80.62 197.57 C 79.74 198.03 78.86 198.51 77.98 198.98 C 75.97 195.92 76.65 191.82 77.16 188.39 C 77.73 188.26 78.88 188.01 79.45 187.88 C 76.44 185.04 75.72 179.86 78.85 176.84 M 78.37 184.58 C 80.14 188.21 84.59 188.85 87.29 191.49 C 89.34 193.83 85.82 196.48 83.54 195.38 C 80.31 194.57 79.79 190.90 77.91 188.70 C 77.64 191.71 77.71 194.74 77.85 197.76 C 78.39 197.37 79.47 196.58 80.01 196.19 C 81.91 196.81 83.86 197.67 85.92 197.35 C 90.23 197.10 93.21 191.87 91.07 188.07 C 89.08 184.00 83.18 184.06 81.35 179.99 C 82.00 177.37 85.31 177.28 87.03 178.87 C 88.80 179.97 88.58 182.75 90.60 183.52 C 90.54 180.95 90.43 178.37 90.42 175.80 C 88.16 178.20 85.52 175.18 82.87 175.89 C 79.09 176.47 76.38 181.13 78.37 184.58 M 82.48 180.17 C 84.12 182.08 86.62 182.87 88.83 183.91 C 88.05 182.48 87.72 180.60 86.23 179.68 C 85.22 178.96 82.66 178.30 82.48 180.17 M 79.19 187.97 C 80.14 189.87 80.64 192.23 82.43 193.57 C 83.70 194.59 86.42 194.97 87.04 192.98 C 85.07 190.49 81.85 189.51 79.19 187.97 Z" />
<path fill="#ffffff" opacity="1.00" d=" M 154.50 176.40 C 156.94 174.07 160.60 174.45 163.47 175.68 C 163.88 175.34 164.72 174.64 165.14 174.30 C 167.38 175.78 166.57 178.72 166.77 180.99 C 166.97 182.55 166.59 184.05 165.19 184.93 C 168.55 187.82 168.93 193.59 165.49 196.57 C 162.88 199.13 158.88 199.01 155.71 197.66 C 154.57 198.02 153.18 199.47 152.29 197.95 C 152.11 194.75 152.14 191.53 152.28 188.33 C 152.94 188.30 154.25 188.23 154.91 188.19 C 151.61 185.22 150.89 179.41 154.50 176.40 M 156.51 176.40 C 153.08 177.87 151.93 182.67 154.18 185.59 C 156.26 188.38 159.95 189.08 162.41 191.40 C 163.99 193.14 162.21 195.86 160.02 195.58 C 156.39 195.51 154.67 191.82 153.84 188.81 C 152.07 191.25 153.50 194.77 153.02 197.62 C 153.59 197.27 154.75 196.57 155.33 196.22 C 158.06 197.30 161.41 198.17 164.03 196.33 C 167.00 194.50 167.88 190.15 165.84 187.33 C 163.56 184.28 159.34 183.74 156.90 180.92 C 155.89 179.12 158.32 177.32 160.00 177.86 C 162.90 178.28 164.08 181.21 164.92 183.63 C 166.91 181.76 165.22 178.35 165.59 175.85 C 165.10 176.14 164.12 176.70 163.63 176.99 C 161.37 176.21 158.81 175.15 156.51 176.40 M 157.60 179.94 C 159.02 182.10 161.84 182.73 163.97 183.99 C 163.72 181.26 160.15 177.12 157.60 179.94 M 154.90 188.06 C 155.05 191.47 158.02 195.76 161.87 193.96 C 162.10 190.46 157.02 190.05 154.90 188.06 Z" />
<path fill="#ffffff" opacity="1.00" d=" M 30.05 175.15 C 35.73 175.17 41.43 174.95 47.11 175.22 C 49.26 177.35 47.71 181.06 47.93 183.84 C 47.28 183.84 45.97 183.84 45.31 183.85 C 44.98 183.18 44.33 181.86 44.01 181.20 C 43.89 185.42 43.92 189.64 43.64 193.86 C 45.84 192.71 45.91 187.51 49.02 188.95 C 49.70 191.84 49.00 195.12 48.03 197.89 C 42.35 198.48 36.56 198.14 30.84 198.09 C 28.19 197.31 29.87 193.75 32.22 194.04 C 32.27 189.09 32.29 184.13 32.21 179.18 C 29.86 179.21 28.89 177.00 30.05 175.15 M 30.30 176.30 C 31.01 176.99 32.42 178.38 33.13 179.07 C 33.31 184.10 33.29 189.14 33.14 194.17 C 32.91 195.67 30.91 195.72 30.25 196.99 C 35.87 197.08 41.50 197.17 47.12 197.02 C 48.40 194.80 48.15 191.97 48.40 189.47 C 46.67 190.77 46.32 193.32 44.30 194.33 C 42.50 195.26 40.39 194.81 38.45 194.75 C 38.43 192.22 38.45 189.70 38.53 187.18 C 39.88 187.84 41.35 188.64 41.58 190.30 C 40.86 189.85 40.11 189.45 39.34 189.10 C 39.39 190.62 39.43 192.13 39.48 193.65 C 40.08 193.76 41.29 193.97 41.89 194.08 C 41.70 193.50 41.31 192.32 41.12 191.74 C 41.27 191.51 41.58 191.05 41.73 190.82 C 41.87 191.28 42.16 192.19 42.30 192.65 C 43.83 188.80 42.86 184.48 43.15 180.42 C 41.26 182.00 41.33 185.19 38.55 185.81 C 38.44 183.30 38.44 180.79 38.45 178.28 C 40.41 178.47 42.76 177.95 44.37 179.37 C 45.28 180.67 45.64 182.42 47.09 183.29 C 47.19 180.98 47.19 178.67 47.19 176.36 C 41.56 176.26 35.93 176.32 30.30 176.30 M 39.83 183.86 C 41.11 183.06 41.76 181.07 41.03 179.70 C 39.02 178.74 38.43 183.06 39.83 183.86 Z" />
<path fill="#ffffff" opacity="1.00" d=" M 53.83 179.33 C 51.80 179.23 49.97 176.79 51.98 175.30 C 55.62 174.85 59.30 175.17 62.96 175.22 C 64.41 178.48 59.53 179.60 61.01 183.10 C 62.58 181.91 64.13 180.69 65.65 179.42 C 65.35 178.03 65.17 176.63 65.11 175.22 C 67.79 175.12 70.47 174.98 73.15 175.17 C 75.04 174.78 75.60 177.96 73.92 178.53 C 70.92 180.02 68.54 182.41 65.90 184.42 C 68.70 188.40 71.29 192.79 75.56 195.38 C 75.62 195.96 75.74 197.13 75.80 197.72 C 71.67 198.48 67.43 198.33 63.29 197.78 C 59.27 198.36 55.15 198.45 51.15 197.70 C 50.92 195.77 51.85 194.26 53.84 193.99 C 53.84 189.10 53.85 184.21 53.83 179.33 M 51.56 176.96 C 52.36 177.30 53.96 177.97 54.76 178.31 C 54.79 183.88 54.74 189.46 54.79 195.03 C 53.79 195.39 52.79 195.75 51.80 196.13 C 55.03 198.12 59.40 196.90 63.03 196.64 C 62.08 196.07 61.15 195.48 60.23 194.88 C 60.19 192.49 60.15 190.11 60.16 187.73 C 62.22 189.96 64.04 192.40 65.75 194.90 C 65.26 195.37 64.27 196.32 63.77 196.79 C 67.53 197.22 71.32 197.16 75.10 196.96 C 70.71 193.54 67.80 188.78 64.37 184.49 C 67.33 181.45 71.16 179.25 74.05 176.31 C 71.24 176.27 68.44 176.28 65.63 176.34 C 66.25 176.88 67.49 177.97 68.11 178.51 C 65.58 180.92 62.90 183.18 60.19 185.38 C 60.19 183.05 60.20 180.73 60.21 178.41 C 60.87 178.03 62.19 177.27 62.85 176.89 C 59.25 175.90 55.12 175.89 51.56 176.96 M 61.18 191.41 C 60.05 192.97 61.95 195.63 63.77 194.81 C 64.01 193.52 62.58 191.19 61.18 191.41 Z" />
<path fill="#ffffff" opacity="1.00" d=" M 94.92 175.15 C 99.42 175.29 104.04 174.60 108.46 175.71 C 113.41 177.05 114.49 184.34 110.59 187.39 C 108.79 188.94 106.30 188.94 104.09 189.39 C 104.12 190.93 104.15 192.47 104.19 194.01 C 106.30 194.19 106.96 195.89 106.79 197.73 C 102.92 198.23 98.81 198.65 95.01 197.76 C 93.35 196.17 95.27 193.96 97.19 194.02 C 97.23 189.11 97.25 184.20 97.18 179.30 C 94.84 179.11 93.81 177.15 94.92 175.15 M 95.19 176.33 C 95.90 177.03 97.31 178.44 98.02 179.14 C 98.24 184.45 98.13 189.79 98.01 195.11 C 97.30 195.33 95.88 195.76 95.18 195.98 L 95.88 196.93 C 99.32 197.28 102.82 197.18 106.25 196.73 C 105.35 195.96 104.29 195.43 103.25 194.88 C 103.19 192.65 103.19 190.41 103.18 188.18 C 106.11 187.87 109.77 187.85 111.34 184.87 C 113.17 181.86 111.35 177.56 107.94 176.77 C 103.76 175.89 99.43 176.43 95.19 176.33 Z" />
<path fill="#ffffff" opacity="1.00" d=" M 114.81 175.11 C 119.91 175.39 125.20 174.45 130.18 175.83 C 135.34 177.69 135.73 185.27 131.24 188.15 C 133.22 190.37 134.69 195.89 138.42 194.40 L 138.52 194.74 C 138.76 195.54 139.01 196.33 139.27 197.13 C 142.63 197.11 145.99 197.07 149.35 196.99 C 148.11 195.97 146.15 195.03 146.37 193.10 C 146.28 189.05 146.33 185.00 146.35 180.96 C 145.96 178.83 147.64 177.26 149.38 176.37 C 145.63 176.27 141.87 176.28 138.11 176.32 C 142.56 178.23 140.80 183.32 141.15 187.03 C 140.91 190.03 141.88 193.49 139.87 196.06 C 139.81 195.59 139.69 194.66 139.63 194.19 C 140.73 189.28 140.06 184.22 140.17 179.24 C 137.86 179.12 136.72 177.11 137.93 175.15 C 141.89 175.10 145.86 175.01 149.81 175.30 C 149.90 177.18 150.01 179.30 147.42 179.21 C 147.28 184.17 147.39 189.12 147.34 194.08 C 147.97 194.30 149.22 194.72 149.85 194.93 C 149.83 195.67 149.80 197.14 149.78 197.87 C 145.68 198.17 141.40 198.75 137.40 197.50 C 134.81 198.29 131.83 198.68 129.25 197.74 C 127.41 195.48 126.00 192.89 124.05 190.71 C 124.02 191.52 123.97 193.15 123.94 193.97 C 125.83 194.24 127.78 196.21 126.03 197.99 C 123.00 198.32 119.94 198.23 116.90 198.17 C 115.64 198.24 113.79 197.78 114.23 196.13 C 114.13 194.65 115.91 194.53 116.84 193.97 C 116.84 189.11 116.84 184.24 116.84 179.38 C 114.58 179.00 113.60 177.07 114.81 175.11 M 114.61 176.92 C 115.40 177.28 116.99 178.00 117.78 178.35 C 117.74 183.88 117.79 189.40 117.75 194.92 C 116.70 195.45 115.65 195.98 114.76 196.76 C 118.45 197.27 122.19 197.11 125.91 197.01 C 125.27 196.01 124.36 195.33 123.17 194.97 C 123.13 192.56 123.09 190.15 123.11 187.73 C 125.97 190.39 127.47 194.11 130.05 196.99 C 132.26 197.22 134.49 197.06 136.71 196.97 C 133.94 194.24 131.79 191.00 129.62 187.79 C 132.55 186.22 134.63 182.62 132.73 179.46 C 131.09 176.22 127.06 176.32 123.95 176.30 C 120.85 176.46 117.58 175.75 114.61 176.92 Z" />
<path fill="#ffffff" opacity="1.00" d=" M 103.27 178.01 C 107.91 178.32 108.01 186.14 103.23 186.23 C 103.18 183.49 103.17 180.75 103.27 178.01 M 104.53 180.23 C 103.97 181.50 103.98 182.77 104.56 184.04 C 105.94 183.91 105.93 180.29 104.53 180.23 Z" />
</g>
<g id="#12a958ff">
<path fill="#12a958" opacity="1.00" d=" M 100.63 22.72 C 102.76 36.21 105.77 49.54 107.98 63.02 C 109.65 73.56 111.12 84.15 113.46 94.57 C 127.68 76.65 141.35 58.29 155.19 40.07 C 158.16 36.20 160.83 32.06 164.32 28.63 C 162.29 34.23 159.30 39.40 156.67 44.73 C 144.38 69.45 132.17 94.20 120.07 119.02 C 113.65 131.95 107.86 145.23 100.59 157.73 C 97.26 151.78 94.55 145.51 91.49 139.42 C 73.68 102.93 56.07 66.33 38.14 29.90 C 42.78 34.95 46.52 40.72 50.76 46.09 C 63.20 62.26 75.03 78.92 87.94 94.73 C 91.76 71.63 96.06 48.61 99.64 25.47 C 99.33 25.75 98.70 26.30 98.39 26.57 C 98.95 25.61 100.07 23.68 100.63 22.72 Z" />
<path fill="#12a958" opacity="1.00" d=" M 20.94 170.66 C 74.37 170.58 127.80 170.63 181.23 170.63 C 181.22 180.79 181.25 190.94 181.22 201.10 C 127.84 201.10 74.47 201.12 21.10 201.09 C 21.00 190.94 20.98 180.80 20.94 170.66 M 78.85 176.84 C 75.72 179.86 76.44 185.04 79.45 187.88 C 78.88 188.01 77.73 188.26 77.16 188.39 C 76.65 191.82 75.97 195.92 77.98 198.98 C 78.86 198.51 79.74 198.03 80.62 197.57 C 84.31 199.57 89.45 198.72 91.63 194.94 C 93.78 191.77 92.70 187.54 90.09 184.99 C 92.81 182.62 91.12 178.72 91.40 175.61 C 91.05 175.30 90.34 174.69 89.98 174.39 C 89.55 174.71 88.68 175.35 88.24 175.68 C 85.21 174.30 81.23 174.14 78.85 176.84 M 154.50 176.40 C 150.89 179.41 151.61 185.22 154.91 188.19 C 154.25 188.23 152.94 188.30 152.28 188.33 C 152.14 191.53 152.11 194.75 152.29 197.95 C 153.18 199.47 154.57 198.02 155.71 197.66 C 158.88 199.01 162.88 199.13 165.49 196.57 C 168.93 193.59 168.55 187.82 165.19 184.93 C 166.59 184.05 166.97 182.55 166.77 180.99 C 166.57 178.72 167.38 175.78 165.14 174.30 C 164.72 174.64 163.88 175.34 163.47 175.68 C 160.60 174.45 156.94 174.07 154.50 176.40 M 30.05 175.15 C 28.89 177.00 29.86 179.21 32.21 179.18 C 32.29 184.13 32.27 189.09 32.22 194.04 C 29.87 193.75 28.19 197.31 30.84 198.09 C 36.56 198.14 42.35 198.48 48.03 197.89 C 49.00 195.12 49.70 191.84 49.02 188.95 C 45.91 187.51 45.84 192.71 43.64 193.86 C 43.92 189.64 43.89 185.42 44.01 181.20 C 44.33 181.86 44.98 183.18 45.31 183.85 C 45.97 183.84 47.28 183.84 47.93 183.84 C 47.71 181.06 49.26 177.35 47.11 175.22 C 41.43 174.95 35.73 175.17 30.05 175.15 M 53.83 179.33 C 53.85 184.21 53.84 189.10 53.84 193.99 C 51.85 194.26 50.92 195.77 51.15 197.70 C 55.15 198.45 59.27 198.36 63.29 197.78 C 67.43 198.33 71.67 198.48 75.80 197.72 C 75.74 197.13 75.62 195.96 75.56 195.38 C 71.29 192.79 68.70 188.40 65.90 184.42 C 68.54 182.41 70.92 180.02 73.92 178.53 C 75.60 177.96 75.04 174.78 73.15 175.17 C 70.47 174.98 67.79 175.12 65.11 175.22 C 65.17 176.63 65.35 178.03 65.65 179.42 C 64.13 180.69 62.58 181.91 61.01 183.10 C 59.53 179.60 64.41 178.48 62.96 175.22 C 59.30 175.17 55.62 174.85 51.98 175.30 C 49.97 176.79 51.80 179.23 53.83 179.33 M 94.92 175.15 C 93.81 177.15 94.84 179.11 97.18 179.30 C 97.25 184.20 97.23 189.11 97.19 194.02 C 95.27 193.96 93.35 196.17 95.01 197.76 C 98.81 198.65 102.92 198.23 106.79 197.73 C 106.96 195.89 106.30 194.19 104.19 194.01 C 104.15 192.47 104.12 190.93 104.09 189.39 C 106.30 188.94 108.79 188.94 110.59 187.39 C 114.49 184.34 113.41 177.05 108.46 175.71 C 104.04 174.60 99.42 175.29 94.92 175.15 M 114.81 175.11 C 113.60 177.07 114.58 179.00 116.84 179.38 C 116.84 184.24 116.84 189.11 116.84 193.97 C 115.91 194.53 114.13 194.65 114.23 196.13 C 113.79 197.78 115.64 198.24 116.90 198.17 C 119.94 198.23 123.00 198.32 126.03 197.99 C 127.78 196.21 125.83 194.24 123.94 193.97 C 123.97 193.15 124.02 191.52 124.05 190.71 C 126.00 192.89 127.41 195.48 129.25 197.74 C 131.83 198.68 134.81 198.29 137.40 197.50 C 141.40 198.75 145.68 198.17 149.78 197.87 C 149.80 197.14 149.83 195.67 149.85 194.93 C 149.22 194.72 147.97 194.30 147.34 194.08 C 147.39 189.12 147.28 184.17 147.42 179.21 C 150.01 179.30 149.90 177.18 149.81 175.30 C 145.86 175.01 141.89 175.10 137.93 175.15 C 136.72 177.11 137.86 179.12 140.17 179.24 C 140.06 184.22 140.73 189.28 139.63 194.19 L 139.12 193.86 C 138.97 194.08 138.67 194.52 138.52 194.74 L 138.42 194.40 C 134.69 195.89 133.22 190.37 131.24 188.15 C 135.73 185.27 135.34 177.69 130.18 175.83 C 125.20 174.45 119.91 175.39 114.81 175.11 Z" />
<path fill="#12a958" opacity="1.00" d=" M 122.89 186.24 C 122.86 183.53 122.67 180.80 122.90 178.10 C 125.96 177.05 129.08 179.74 128.18 182.92 C 128.52 186.01 125.11 186.24 122.89 186.24 Z" />
<path fill="#12a958" opacity="1.00" d=" M 82.48 180.17 C 82.66 178.30 85.22 178.96 86.23 179.68 C 87.72 180.60 88.05 182.48 88.83 183.91 C 86.62 182.87 84.12 182.08 82.48 180.17 Z" />
<path fill="#12a958" opacity="1.00" d=" M 157.60 179.94 C 160.15 177.12 163.72 181.26 163.97 183.99 C 161.84 182.73 159.02 182.10 157.60 179.94 Z" />
<path fill="#12a958" opacity="1.00" d=" M 39.83 183.86 C 38.43 183.06 39.02 178.74 41.03 179.70 C 41.76 181.07 41.11 183.06 39.83 183.86 Z" />
<path fill="#12a958" opacity="1.00" d=" M 104.53 180.23 C 105.93 180.29 105.94 183.91 104.56 184.04 C 103.98 182.77 103.97 181.50 104.53 180.23 Z" />
<path fill="#12a958" opacity="1.00" d=" M 39.34 189.10 C 40.11 189.45 40.86 189.85 41.58 190.30 L 41.73 190.82 C 41.58 191.05 41.27 191.51 41.12 191.74 C 41.31 192.32 41.70 193.50 41.89 194.08 C 41.29 193.97 40.08 193.76 39.48 193.65 C 39.43 192.13 39.39 190.62 39.34 189.10 Z" />
<path fill="#12a958" opacity="1.00" d=" M 79.19 187.97 C 81.85 189.51 85.07 190.49 87.04 192.98 C 86.42 194.97 83.70 194.59 82.43 193.57 C 80.64 192.23 80.14 189.87 79.19 187.97 Z" />
<path fill="#12a958" opacity="1.00" d=" M 154.90 188.06 C 157.02 190.05 162.10 190.46 161.87 193.96 C 158.02 195.76 155.05 191.47 154.90 188.06 Z" />
<path fill="#12a958" opacity="1.00" d=" M 61.18 191.41 C 62.58 191.19 64.01 193.52 63.77 194.81 C 61.95 195.63 60.05 192.97 61.18 191.41 Z" />
</g>
</svg>
