<?xml version="1.0" encoding="UTF-8" ?>
<!DOCTYPE svg PUBLIC "-//W3C//DTD SVG 1.1//EN" "http://www.w3.org/Graphics/SVG/1.1/DTD/svg11.dtd">
<svg width="1080pt" height="271pt" viewBox="0 0 1080 271" version="1.1" xmlns="http://www.w3.org/2000/svg">
<g id="#201e1eff">
<path fill="#201e1e" opacity="1.00" d=" M 13.47 13.15 C 56.32 12.79 99.18 12.59 142.04 12.24 C 173.54 12.14 205.05 12.12 236.55 11.48 C 207.70 74.85 178.99 138.29 150.12 201.65 C 178.37 201.64 206.62 201.64 234.88 201.65 C 234.86 220.54 234.87 239.43 234.87 258.33 C 224.91 258.36 214.94 258.40 204.99 257.98 C 155.32 257.98 105.66 257.98 55.99 257.98 C 42.57 257.84 29.17 258.60 15.75 258.32 C 15.77 239.43 15.76 220.53 15.76 201.64 C 44.27 201.64 72.78 201.65 101.30 201.64 C 72.04 138.80 42.72 75.99 13.47 13.15 M 22.14 18.65 C 50.56 79.65 79.00 140.63 107.43 201.63 C 112.25 201.64 117.06 201.63 121.88 201.64 C 123.81 201.63 125.73 201.63 127.66 201.63 C 133.08 201.63 138.50 201.60 143.93 201.68 C 172.08 140.31 199.77 78.73 227.82 17.31 C 159.26 17.47 90.70 18.25 22.14 18.65 M 21.38 207.19 C 21.37 222.38 21.37 237.56 21.38 252.75 C 90.69 252.71 160.00 252.69 229.32 252.75 C 229.34 237.57 229.32 222.38 229.32 207.19 C 160.01 207.24 90.70 207.24 21.38 207.19 Z" />
<path fill="#201e1e" opacity="1.00" d=" M 37.87 218.16 C 44.69 218.19 51.50 218.19 58.31 218.17 C 58.35 221.19 58.41 224.21 58.04 227.22 C 56.94 225.52 56.16 223.62 54.99 221.97 C 53.00 220.22 50.12 220.80 47.69 220.53 C 47.65 223.70 47.64 226.87 47.79 230.03 C 51.19 229.17 51.31 225.50 53.05 223.09 C 53.47 228.21 53.49 233.38 53.00 238.50 C 51.54 235.94 50.93 232.52 47.78 231.44 C 47.63 234.72 47.64 238.00 47.77 241.28 C 50.48 241.26 53.57 241.70 55.85 239.88 C 57.50 238.23 58.33 235.96 59.95 234.28 C 59.88 237.45 59.38 240.59 58.93 243.72 C 52.63 243.75 46.33 243.76 40.03 243.76 C 38.99 243.82 38.09 243.49 37.33 242.77 C 38.62 241.97 41.54 242.10 41.15 239.86 C 41.02 233.42 41.63 226.88 40.85 220.49 C 40.11 220.24 38.63 219.75 37.89 219.50 C 37.89 219.17 37.88 218.50 37.87 218.16 Z" />
<path fill="#201e1e" opacity="1.00" d=" M 65.04 218.28 C 68.99 218.08 72.96 218.05 76.90 218.31 C 78.51 219.37 75.25 220.00 74.73 220.92 C 74.26 223.72 74.58 226.59 74.55 229.42 C 77.96 226.65 81.40 223.92 84.47 220.77 C 83.68 220.32 82.09 219.42 81.30 218.97 C 84.42 217.25 88.86 218.27 92.40 218.71 C 87.62 221.06 83.87 224.87 79.78 228.18 C 84.10 233.45 87.44 239.72 93.27 243.56 C 88.58 243.88 83.87 243.77 79.18 243.65 C 79.76 243.02 80.93 241.75 81.52 241.12 C 79.29 238.04 77.00 235.00 74.61 232.05 C 74.55 235.10 74.31 238.17 74.68 241.22 C 75.37 241.55 76.76 242.23 77.45 242.57 L 77.34 243.80 C 73.16 243.72 68.98 243.73 64.80 243.79 L 64.71 242.45 C 65.46 242.21 66.96 241.72 67.71 241.48 C 68.13 234.51 67.83 227.51 67.84 220.53 C 67.03 219.80 62.95 219.83 65.04 218.28 Z" />
<path fill="#201e1e" opacity="1.00" d=" M 101.18 218.14 C 104.07 216.89 107.13 218.12 109.85 219.22 C 110.40 218.71 111.50 217.70 112.05 217.19 C 112.13 220.65 112.38 224.12 112.04 227.57 C 110.10 225.11 109.33 221.30 105.98 220.29 C 103.87 219.38 101.03 220.59 100.88 223.06 C 103.58 227.88 110.85 227.86 113.12 233.17 C 115.22 237.71 111.98 243.41 107.09 244.14 C 103.44 245.11 99.71 241.52 96.43 244.36 C 96.46 240.65 96.22 236.92 96.77 233.24 C 98.58 235.77 99.09 239.33 101.93 241.03 C 104.02 242.45 107.53 242.44 108.77 239.91 C 109.49 238.35 108.32 236.83 107.11 235.97 C 103.82 233.55 99.27 232.47 97.25 228.63 C 95.21 224.84 97.13 219.63 101.18 218.14 Z" />
<path fill="#201e1e" opacity="1.00" d=" M 170.80 218.81 C 175.61 217.73 180.79 217.88 185.63 218.77 C 184.29 219.39 182.95 220.03 181.64 220.69 C 181.25 227.55 181.24 234.49 181.65 241.35 C 182.58 241.75 184.44 242.54 185.37 242.94 C 181.11 244.70 176.23 243.29 171.72 243.79 L 171.59 242.46 C 172.35 242.21 173.88 241.72 174.65 241.47 C 175.00 234.55 175.01 227.55 174.65 220.62 C 173.37 220.01 172.08 219.40 170.80 218.81 Z" />
<path fill="#201e1e" opacity="1.00" d=" M 194.14 218.25 C 197.10 216.83 200.32 218.05 203.10 219.26 C 203.60 218.74 204.60 217.70 205.11 217.19 C 205.37 220.62 205.70 224.08 205.31 227.53 C 203.11 224.89 202.19 220.24 198.02 220.05 C 195.85 219.46 192.92 222.26 194.78 224.21 C 198.20 227.82 204.38 228.42 206.45 233.39 C 208.37 238.02 204.99 243.59 200.08 244.18 C 196.51 245.03 192.85 241.47 189.74 244.46 C 189.71 240.74 189.54 237.01 189.96 233.30 C 192.02 236.34 192.87 240.97 197.05 241.84 C 199.51 242.66 201.44 240.95 202.68 239.04 C 200.35 233.90 193.52 233.77 190.72 229.06 C 188.39 225.35 190.09 219.92 194.14 218.25 Z" />
<path fill="#201e1e" opacity="1.00" d=" M 118.41 218.13 C 123.56 218.44 128.83 217.60 133.90 218.79 C 138.48 219.86 140.47 225.98 137.49 229.59 C 135.23 232.58 131.20 232.54 127.81 232.76 C 127.85 235.47 127.60 238.21 127.99 240.90 C 129.22 241.79 130.47 242.67 131.72 243.55 C 127.31 243.90 122.88 243.68 118.47 243.80 L 118.28 242.53 C 119.06 242.22 120.62 241.60 121.40 241.28 C 121.68 234.42 121.86 227.46 121.30 220.62 C 120.56 220.34 119.09 219.78 118.35 219.50 L 118.41 218.13 M 127.70 220.14 C 127.64 223.68 127.65 227.22 127.75 230.76 C 129.13 230.15 130.98 230.10 131.89 228.71 C 132.65 226.63 132.66 224.29 131.94 222.20 C 131.01 220.77 129.14 220.73 127.70 220.14 Z" />
<path fill="#201e1e" opacity="1.00" d=" M 142.89 218.17 C 148.57 218.39 154.31 217.71 159.93 218.65 C 164.06 219.34 166.44 224.14 164.95 227.95 C 164.30 230.01 162.26 231.03 160.65 232.24 C 163.47 236.15 165.68 240.64 169.73 243.47 C 166.85 243.79 163.94 243.76 161.04 243.80 C 158.22 239.88 155.78 235.70 152.66 232.00 C 152.50 235.04 152.23 238.11 152.67 241.14 C 153.99 241.87 155.32 242.57 156.67 243.26 C 153.15 244.04 149.53 243.71 145.95 243.77 C 144.64 243.86 143.32 243.68 142.29 242.81 C 143.18 242.46 144.95 241.75 145.83 241.39 C 146.32 234.50 146.15 227.47 145.92 220.57 C 145.16 220.30 143.65 219.76 142.89 219.49 L 142.89 218.17 M 152.54 220.34 C 152.44 223.72 152.44 227.10 152.53 230.48 C 153.95 230.30 155.36 230.04 156.75 229.70 C 159.20 228.37 159.18 224.92 158.26 222.64 C 157.25 220.46 154.49 220.79 152.54 220.34 Z" />
</g>
<g id="#ef4637ff">
<path fill="#ef4637" opacity="1.00" d=" M 22.14 18.65 C 90.70 18.25 159.26 17.47 227.82 17.31 C 199.77 78.73 172.08 140.31 143.93 201.68 C 138.50 201.60 133.08 201.63 127.66 201.63 C 131.68 193.00 136.18 184.60 140.06 175.90 C 149.39 154.03 160.33 132.91 170.46 111.42 C 185.01 80.97 199.32 50.40 213.85 19.94 C 207.93 26.38 202.55 33.28 197.14 40.13 C 179.17 62.54 161.35 85.08 143.09 107.25 C 138.27 83.49 133.30 59.75 128.43 35.99 C 127.35 30.60 126.07 25.26 124.69 19.94 C 117.82 48.95 112.97 78.40 106.48 107.50 C 82.78 78.49 59.97 48.76 36.13 19.86 C 46.19 42.59 57.13 64.90 67.73 87.37 C 79.10 111.33 90.49 135.29 101.83 159.27 C 108.18 173.55 115.48 187.38 121.88 201.64 C 117.06 201.63 112.25 201.64 107.43 201.63 C 79.00 140.63 50.56 79.65 22.14 18.65 Z" />
</g>
<g id="#ffffffff">
<path fill="#ffffff" opacity="1.00" d=" M 67.73 87.37 C 57.13 64.90 46.19 42.59 36.13 19.86 C 59.97 48.76 82.78 78.49 106.48 107.50 C 112.97 78.40 117.82 48.95 124.69 19.94 C 126.07 25.26 127.35 30.60 128.43 35.99 C 133.30 59.75 138.27 83.49 143.09 107.25 C 161.35 85.08 179.17 62.54 197.14 40.13 C 202.55 33.28 207.93 26.38 213.85 19.94 C 199.32 50.40 185.01 80.97 170.46 111.42 C 160.33 132.91 149.39 154.03 140.06 175.90 C 136.18 184.60 131.68 193.00 127.66 201.63 C 125.73 201.63 123.81 201.63 121.88 201.64 C 115.48 187.38 108.18 173.55 101.83 159.27 C 90.49 135.29 79.10 111.33 67.73 87.37 M 109.02 117.23 C 106.28 114.18 103.79 110.92 101.29 107.67 C 83.13 83.91 65.24 59.94 47.09 36.17 C 72.73 89.24 98.64 142.18 124.48 195.15 C 130.74 185.47 135.34 174.85 140.49 164.56 C 158.25 127.78 176.39 91.18 194.61 54.62 C 197.88 48.10 201.45 41.70 204.02 34.85 C 201.68 37.24 199.65 39.90 197.63 42.56 C 178.90 67.66 159.73 92.42 140.72 117.30 C 136.70 99.72 134.88 81.73 131.36 64.05 C 129.04 51.92 126.78 39.78 124.45 27.66 C 119.18 57.49 114.13 87.37 109.02 117.23 Z" />
<path fill="#ffffff" opacity="1.00" d=" M 688.07 83.12 C 703.08 70.64 728.13 73.25 740.37 88.44 C 742.51 90.97 744.19 93.84 745.77 96.75 C 739.69 100.39 733.53 103.89 727.44 107.52 C 725.05 102.86 721.41 98.33 716.07 97.10 C 711.14 95.92 704.66 95.89 701.35 100.39 C 698.94 103.87 700.88 108.70 704.46 110.50 C 715.20 116.61 728.39 117.21 738.50 124.65 C 751.94 133.98 751.57 156.13 739.41 166.37 C 732.47 172.42 723.04 174.63 714.03 174.89 C 703.99 175.02 693.45 172.82 685.47 166.40 C 680.49 162.52 676.88 157.15 674.50 151.34 C 680.72 147.62 687.05 144.09 693.28 140.38 C 696.09 146.89 701.81 152.45 709.09 153.31 C 714.46 153.97 720.98 154.16 725.13 150.10 C 728.43 146.50 726.31 140.63 722.06 138.86 C 711.11 133.29 697.82 132.94 688.04 124.93 C 674.97 115.10 675.68 93.22 688.07 83.12 Z" />
<path fill="#ffffff" opacity="1.00" d=" M 980.46 83.58 C 992.35 73.12 1011.10 72.80 1024.42 80.73 C 1030.65 84.47 1035.34 90.29 1038.69 96.67 C 1032.68 100.44 1026.44 103.82 1020.39 107.52 C 1017.94 102.94 1014.41 98.38 1009.09 97.14 C 1004.14 95.92 997.60 95.85 994.28 100.39 C 991.79 103.89 993.84 108.77 997.46 110.55 C 1008.38 116.72 1021.85 117.27 1031.98 125.08 C 1038.18 129.62 1041.61 137.33 1041.31 144.96 C 1041.74 152.96 1038.48 161.11 1032.37 166.34 C 1025.15 172.63 1015.30 174.80 1005.95 174.90 C 996.47 174.86 986.60 172.73 978.96 166.85 C 973.69 162.93 969.86 157.37 967.43 151.33 C 973.64 147.62 979.96 144.08 986.19 140.39 C 988.91 146.53 994.10 151.96 1000.96 153.11 C 1006.47 154.03 1013.05 154.29 1017.62 150.54 C 1021.17 147.34 1019.75 141.29 1015.65 139.27 C 1004.65 133.25 991.01 133.15 981.03 125.00 C 968.10 115.35 968.51 93.86 980.46 83.58 Z" />
<path fill="#ffffff" opacity="1.00" d=" M 297.27 77.14 C 310.21 77.29 323.15 77.00 336.09 77.28 C 349.98 78.10 362.70 88.51 365.80 102.15 C 368.27 112.13 365.77 123.25 359.04 131.07 C 353.37 137.83 344.87 142.03 336.08 142.67 C 330.29 143.05 324.47 142.74 318.67 142.84 C 318.62 152.91 318.68 162.97 318.64 173.04 C 311.52 173.07 304.40 173.04 297.28 173.06 C 297.24 141.08 297.27 109.11 297.27 77.14 M 318.67 97.49 C 318.63 105.79 318.64 114.10 318.67 122.41 C 323.76 122.37 328.85 122.52 333.94 122.36 C 337.61 122.20 341.09 120.11 342.99 116.97 C 347.21 110.56 344.41 100.41 336.79 98.10 C 330.85 96.84 324.70 97.75 318.67 97.49 Z" />
<path fill="#ffffff" opacity="1.00" d=" M 372.40 77.13 C 396.11 77.18 419.82 77.22 443.52 77.12 C 443.55 84.11 443.53 91.11 443.53 98.11 C 435.32 98.11 427.12 98.06 418.91 98.13 C 418.88 123.11 418.94 148.08 418.88 173.05 C 411.63 173.05 404.39 173.05 397.15 173.06 C 397.08 148.08 397.14 123.10 397.11 98.12 C 388.87 98.07 380.63 98.11 372.39 98.10 C 372.40 91.11 372.38 84.12 372.40 77.13 Z" />
<path fill="#ffffff" opacity="1.00" d=" M 520.67 77.11 C 540.48 77.23 560.30 77.18 580.12 77.13 C 580.12 84.12 580.11 91.11 580.12 98.10 C 567.54 98.10 554.95 98.09 542.37 98.11 C 542.31 103.44 542.31 108.78 542.37 114.11 C 553.82 114.13 565.28 114.14 576.73 114.10 C 576.75 121.03 576.76 127.96 576.73 134.88 C 565.27 134.82 553.82 134.85 542.36 134.86 C 542.32 140.55 542.31 146.24 542.36 151.93 C 555.19 151.96 568.03 151.94 580.86 151.94 C 580.89 158.98 580.90 166.02 580.86 173.06 C 560.79 173.05 540.73 173.05 520.66 173.06 C 520.65 141.07 520.64 109.09 520.67 77.11 Z" />
<path fill="#ffffff" opacity="1.00" d=" M 596.08 77.15 C 603.34 77.18 610.61 77.18 617.87 77.15 C 617.88 91.04 617.87 104.93 617.87 118.82 C 627.86 105.05 637.52 91.04 647.35 77.16 C 655.65 77.15 663.95 77.23 672.24 77.11 C 661.42 92.68 650.63 108.26 639.85 123.86 C 651.14 140.23 662.39 156.64 673.61 173.06 C 665.35 173.05 657.09 173.05 648.84 173.06 C 638.45 158.26 628.37 143.26 617.87 128.55 C 617.85 143.38 617.90 158.22 617.85 173.05 C 610.60 173.05 603.35 173.05 596.10 173.05 C 596.04 141.09 596.08 109.12 596.08 77.15 Z" />
<path fill="#ffffff" opacity="1.00" d=" M 761.76 77.11 C 774.17 77.26 786.59 77.10 799.00 77.19 C 809.22 77.35 819.32 82.37 825.31 90.71 C 833.33 101.42 833.59 117.12 826.08 128.16 C 820.72 136.17 811.71 141.58 802.11 142.54 C 795.92 143.16 789.69 142.69 783.48 142.84 C 783.39 152.91 783.48 162.99 783.43 173.06 C 776.20 173.05 768.98 173.05 761.76 173.06 C 761.75 141.07 761.75 109.09 761.76 77.11 M 783.47 97.49 C 783.42 105.79 783.43 114.10 783.47 122.40 C 788.63 122.37 793.80 122.53 798.96 122.34 C 804.00 122.10 808.31 118.09 809.39 113.24 C 811.27 106.68 807.01 98.68 799.98 97.73 C 794.50 97.18 788.97 97.60 783.47 97.49 Z" />
<path fill="#ffffff" opacity="1.00" d=" M 845.27 77.14 C 858.20 77.21 871.12 77.14 884.05 77.17 C 893.54 77.21 902.92 81.61 908.94 88.98 C 914.49 95.56 917.14 104.39 916.30 112.95 C 915.38 123.59 908.18 133.02 898.81 137.82 C 905.61 149.58 912.44 161.31 919.25 173.06 C 911.44 173.05 903.63 173.05 895.83 173.06 C 890.16 163.29 884.54 153.49 878.94 143.68 C 878.37 142.92 878.09 141.95 877.28 141.42 C 873.89 141.28 870.50 141.40 867.11 141.39 C 867.03 151.94 867.10 162.50 867.08 173.05 C 859.81 173.05 852.54 173.06 845.28 173.05 C 845.24 141.08 845.26 109.11 845.27 77.14 M 867.09 97.51 C 867.06 105.80 867.07 114.10 867.09 122.39 C 872.71 122.40 878.34 122.47 883.97 122.39 C 889.17 122.28 893.42 117.87 894.39 112.93 C 896.06 106.46 891.88 98.49 884.91 97.65 C 878.98 97.25 873.02 97.56 867.09 97.51 Z" />
<path fill="#ffffff" opacity="1.00" d=" M 932.44 77.14 C 939.68 77.17 946.92 77.22 954.17 77.11 C 954.17 109.09 954.18 141.08 954.16 173.06 C 946.92 173.03 939.69 173.09 932.45 173.02 C 932.42 141.06 932.44 109.10 932.44 77.14 Z" />
<path fill="#ffffff" opacity="1.00" d=" M 449.41 149.61 C 457.31 146.67 466.71 153.55 466.26 161.98 C 466.53 169.44 459.20 175.89 451.84 174.80 C 446.20 174.18 441.31 169.54 440.55 163.90 C 439.47 157.81 443.49 151.36 449.41 149.61 Z" />
<path fill="#ffffff" opacity="1.00" d=" M 21.38 207.19 C 90.70 207.24 160.01 207.24 229.32 207.19 C 229.32 222.38 229.34 237.57 229.32 252.75 C 160.00 252.69 90.69 252.71 21.38 252.75 C 21.37 237.56 21.37 222.38 21.38 207.19 M 26.11 211.16 C 26.09 223.70 26.09 236.24 26.12 248.78 C 92.29 248.79 158.46 248.76 224.63 248.80 C 224.64 236.25 224.64 223.70 224.63 211.15 C 158.46 211.18 92.29 211.15 26.11 211.16 Z" />
<path fill="#ffffff" opacity="1.00" d=" M 80.97 216.99 C 84.25 216.47 87.60 216.65 90.91 216.78 C 92.90 216.50 93.67 219.93 91.87 220.75 C 88.03 222.70 84.86 225.64 81.61 228.41 C 85.26 232.75 87.83 238.30 92.94 241.18 C 94.76 241.83 93.42 243.83 93.41 245.19 C 88.46 245.14 83.48 245.52 78.56 244.77 C 74.03 245.35 69.41 245.46 64.87 245.02 C 62.90 244.75 63.78 242.18 63.68 240.87 C 64.45 240.77 66.00 240.57 66.77 240.47 C 66.80 234.13 66.78 227.80 66.78 221.46 C 66.02 221.37 64.51 221.18 63.76 221.09 C 63.73 219.74 62.89 217.03 64.97 216.87 C 69.23 216.70 73.67 216.27 77.85 217.16 C 79.70 219.23 77.55 221.04 75.76 222.02 C 75.75 223.58 75.75 225.14 75.76 226.70 C 77.69 225.09 79.63 223.48 81.58 221.90 C 80.79 220.37 79.69 218.60 80.97 216.99 M 65.04 218.28 C 62.95 219.83 67.03 219.80 67.84 220.53 C 67.83 227.51 68.13 234.51 67.71 241.48 C 66.96 241.72 65.46 242.21 64.71 242.45 L 64.80 243.79 C 68.98 243.73 73.16 243.72 77.34 243.80 L 77.45 242.57 C 76.76 242.23 75.37 241.55 74.68 241.22 C 74.31 238.17 74.55 235.10 74.61 232.05 C 77.00 235.00 79.29 238.04 81.52 241.12 C 80.93 241.75 79.76 243.02 79.18 243.65 C 83.87 243.77 88.58 243.88 93.27 243.56 C 87.44 239.72 84.10 233.45 79.78 228.18 C 83.87 224.87 87.62 221.06 92.40 218.71 C 88.86 218.27 84.42 217.25 81.30 218.97 C 82.09 219.42 83.68 220.32 84.47 220.77 C 81.40 223.92 77.96 226.65 74.55 229.42 C 74.58 226.59 74.26 223.72 74.73 220.92 C 75.25 220.00 78.51 219.37 76.90 218.31 C 72.96 218.05 68.99 218.08 65.04 218.28 M 75.84 235.64 C 75.80 236.80 75.73 239.10 75.70 240.26 C 77.01 240.73 78.33 241.19 79.65 241.64 C 78.77 239.41 77.32 237.49 75.84 235.64 Z" />
<path fill="#ffffff" opacity="1.00" d=" M 100.04 217.11 C 103.00 215.38 106.51 216.28 109.49 217.46 C 109.93 216.99 110.82 216.06 111.27 215.60 C 113.78 216.78 113.36 219.65 113.46 221.95 C 113.43 224.41 114.25 227.61 111.32 228.74 C 115.67 232.17 116.31 239.29 112.08 243.06 C 108.77 246.52 103.47 246.25 99.42 244.36 C 98.95 244.83 98.01 245.77 97.54 246.24 C 96.82 245.50 95.30 245.22 95.33 243.99 C 95.26 239.60 94.08 234.50 97.28 230.90 C 93.61 226.70 95.07 219.57 100.04 217.11 M 101.18 218.14 C 97.13 219.63 95.21 224.84 97.25 228.63 C 99.27 232.47 103.82 233.55 107.11 235.97 C 108.32 236.83 109.49 238.35 108.77 239.91 C 107.53 242.44 104.02 242.45 101.93 241.03 C 99.09 239.33 98.58 235.77 96.77 233.24 C 96.22 236.92 96.46 240.65 96.43 244.36 C 99.71 241.52 103.44 245.11 107.09 244.14 C 111.98 243.41 115.22 237.71 113.12 233.17 C 110.85 227.86 103.58 227.88 100.88 223.06 C 101.03 220.59 103.87 219.38 105.98 220.29 C 109.33 221.30 110.10 225.11 112.04 227.57 C 112.38 224.12 112.13 220.65 112.05 217.19 C 111.50 217.70 110.40 218.71 109.85 219.22 C 107.13 218.12 104.07 216.89 101.18 218.14 M 101.55 222.67 C 104.18 224.75 107.11 226.40 110.14 227.82 C 109.48 223.94 105.58 219.42 101.55 222.67 M 103.10 240.06 C 104.93 241.35 106.78 239.85 108.46 239.09 C 105.59 236.09 101.60 234.68 98.40 232.12 C 99.40 235.00 99.95 238.70 103.10 240.06 Z" />
<path fill="#ffffff" opacity="1.00" d=" M 117.99 216.92 C 121.32 216.48 124.69 216.76 128.03 216.70 C 131.33 216.73 135.08 216.86 137.58 219.33 C 141.03 222.43 140.93 228.42 137.51 231.50 C 135.28 233.73 131.98 233.87 129.05 234.28 C 129.07 236.24 129.08 238.20 129.08 240.17 C 131.49 240.35 133.31 242.50 131.81 244.78 C 128.63 245.61 125.28 245.11 122.03 245.23 C 120.15 245.11 117.03 245.86 117.08 243.03 C 116.75 240.97 118.92 240.75 120.30 240.12 C 120.36 234.01 120.36 227.91 120.30 221.81 C 117.81 221.63 115.81 218.91 117.99 216.92 M 118.41 218.13 L 118.35 219.50 C 119.09 219.78 120.56 220.34 121.30 220.62 C 121.86 227.46 121.68 234.42 121.40 241.28 C 120.62 241.60 119.06 242.22 118.28 242.53 L 118.47 243.80 C 122.88 243.68 127.31 243.90 131.72 243.55 C 130.47 242.67 129.22 241.79 127.99 240.90 C 127.60 238.21 127.85 235.47 127.81 232.76 C 131.20 232.54 135.23 232.58 137.49 229.59 C 140.47 225.98 138.48 219.86 133.90 218.79 C 128.83 217.60 123.56 218.44 118.41 218.13 Z" />
<path fill="#ffffff" opacity="1.00" d=" M 171.55 216.88 C 176.02 216.58 180.56 216.54 185.03 216.91 C 187.36 218.87 185.21 221.68 182.70 221.76 C 182.64 227.89 182.64 234.02 182.69 240.14 C 185.24 240.21 187.26 243.05 185.04 245.02 C 180.18 245.25 175.13 245.74 170.36 244.52 C 167.12 245.28 163.52 245.79 160.32 244.76 C 157.91 241.92 156.13 238.61 153.80 235.71 C 153.77 237.16 153.76 238.62 153.75 240.08 C 156.16 240.42 158.36 243.00 156.06 245.04 C 151.47 245.23 146.76 245.61 142.21 244.80 C 140.48 242.55 142.58 240.44 144.87 240.09 C 144.88 234.01 144.88 227.93 144.87 221.85 C 142.30 221.79 140.02 218.16 143.01 216.86 C 148.34 216.58 153.73 216.55 159.05 217.01 C 163.83 217.31 167.40 222.25 166.49 226.89 C 166.22 229.40 164.28 231.17 162.66 232.91 C 164.81 236.11 166.75 239.60 170.06 241.78 C 171.24 241.24 172.43 240.73 173.62 240.23 C 173.69 233.94 173.71 227.64 173.61 221.35 C 172.88 221.29 171.41 221.18 170.67 221.12 C 170.73 219.71 169.83 217.60 171.55 216.88 M 170.80 218.81 C 172.08 219.40 173.37 220.01 174.65 220.62 C 175.01 227.55 175.00 234.55 174.65 241.47 C 173.88 241.72 172.35 242.21 171.59 242.46 L 171.72 243.79 C 176.23 243.29 181.11 244.70 185.37 242.94 C 184.44 242.54 182.58 241.75 181.65 241.35 C 181.24 234.49 181.25 227.55 181.64 220.69 C 182.95 220.03 184.29 219.39 185.63 218.77 C 180.79 217.88 175.61 217.73 170.80 218.81 M 142.89 218.17 L 142.89 219.49 C 143.65 219.76 145.16 220.30 145.92 220.57 C 146.15 227.47 146.32 234.50 145.83 241.39 C 144.95 241.75 143.18 242.46 142.29 242.81 C 143.32 243.68 144.64 243.86 145.95 243.77 C 149.53 243.71 153.15 244.04 156.67 243.26 C 155.32 242.57 153.99 241.87 152.67 241.14 C 152.23 238.11 152.50 235.04 152.66 232.00 C 155.78 235.70 158.22 239.88 161.04 243.80 C 163.94 243.76 166.85 243.79 169.73 243.47 C 165.68 240.64 163.47 236.15 160.65 232.24 C 162.26 231.03 164.30 230.01 164.95 227.95 C 166.44 224.14 164.06 219.34 159.93 218.65 C 154.31 217.71 148.57 218.39 142.89 218.17 Z" />
<path fill="#ffffff" opacity="1.00" d=" M 191.93 217.98 C 194.87 215.44 198.97 215.99 202.34 217.23 C 203.63 216.52 205.70 215.22 206.35 217.39 C 206.81 220.56 206.87 223.81 206.67 227.02 C 206.13 227.44 205.06 228.29 204.53 228.71 C 206.14 230.52 207.98 232.44 208.12 235.01 C 208.94 239.97 205.08 244.95 200.17 245.66 C 197.53 246.18 194.96 245.15 192.51 244.35 C 192.07 244.83 191.20 245.80 190.77 246.29 C 189.99 245.55 188.49 245.14 188.55 243.84 C 188.33 239.97 188.14 235.99 189.18 232.22 C 189.83 232.24 191.12 232.29 191.77 232.31 C 187.41 228.74 187.32 221.36 191.93 217.98 M 194.14 218.25 C 190.09 219.92 188.39 225.35 190.72 229.06 C 193.52 233.77 200.35 233.90 202.68 239.04 C 201.44 240.95 199.51 242.66 197.05 241.84 C 192.87 240.97 192.02 236.34 189.96 233.30 C 189.54 237.01 189.71 240.74 189.74 244.46 C 192.85 241.47 196.51 245.03 200.08 244.18 C 204.99 243.59 208.37 238.02 206.45 233.39 C 204.38 228.42 198.20 227.82 194.78 224.21 C 192.92 222.26 195.85 219.46 198.02 220.05 C 202.19 220.24 203.11 224.89 205.31 227.53 C 205.70 224.08 205.37 220.62 205.11 217.19 C 204.60 217.70 203.60 218.74 203.10 219.26 C 200.32 218.05 197.10 216.83 194.14 218.25 M 195.18 222.90 C 197.59 225.08 200.57 226.42 203.45 227.84 C 202.75 224.39 198.67 218.91 195.18 222.90 M 192.30 235.21 C 193.49 238.73 197.98 242.76 201.36 239.10 C 199.52 236.53 196.46 235.40 193.99 233.59 C 193.42 234.12 192.85 234.66 192.30 235.21 Z" />
<path fill="#ffffff" opacity="1.00" d=" M 36.55 219.02 C 36.57 216.02 40.04 216.83 42.02 216.68 C 47.65 216.87 53.30 216.41 58.91 216.94 C 59.99 220.28 60.22 224.47 58.81 227.71 C 56.08 229.17 55.55 225.32 54.49 223.65 C 54.42 228.45 54.84 233.28 54.33 238.06 C 51.30 241.40 50.13 235.54 49.02 233.50 C 48.90 235.68 48.89 237.87 48.91 240.06 C 50.87 239.77 52.97 239.84 54.78 238.94 C 57.17 237.68 56.83 233.24 60.02 233.34 C 60.31 233.74 60.89 234.55 61.18 234.95 C 60.72 238.20 61.42 242.68 58.98 245.04 C 51.75 245.18 44.39 245.64 37.22 244.80 C 35.46 242.58 37.56 240.36 39.90 240.18 C 40.01 234.04 40.19 227.90 39.98 221.77 C 38.61 221.18 36.51 220.99 36.55 219.02 M 37.87 218.16 C 37.88 218.50 37.89 219.17 37.89 219.50 C 38.63 219.75 40.11 220.24 40.85 220.49 C 41.63 226.88 41.02 233.42 41.15 239.86 C 41.54 242.10 38.62 241.97 37.33 242.77 C 38.09 243.49 38.99 243.82 40.03 243.76 C 46.33 243.76 52.63 243.75 58.93 243.72 C 59.38 240.59 59.88 237.45 59.95 234.28 C 58.33 235.96 57.50 238.23 55.85 239.88 C 53.57 241.70 50.48 241.26 47.77 241.28 C 47.64 238.00 47.63 234.72 47.78 231.44 C 50.93 232.52 51.54 235.94 53.00 238.50 C 53.49 233.38 53.47 228.21 53.05 223.09 C 51.31 225.50 51.19 229.17 47.79 230.03 C 47.64 226.87 47.65 223.70 47.69 220.53 C 50.12 220.80 53.00 220.22 54.99 221.97 C 56.16 223.62 56.94 225.52 58.04 227.22 C 58.41 224.21 58.35 221.19 58.31 218.17 C 51.50 218.19 44.69 218.19 37.87 218.16 M 48.84 222.16 C 48.88 224.18 48.94 226.19 49.05 228.21 C 50.01 226.14 50.83 224.02 51.68 221.92 C 50.97 221.98 49.55 222.10 48.84 222.16 Z" />
<path fill="#ffffff" opacity="1.00" d=" M 152.54 220.34 C 154.49 220.79 157.25 220.46 158.26 222.64 C 159.18 224.92 159.20 228.37 156.75 229.70 C 155.36 230.04 153.95 230.30 152.53 230.48 C 152.44 227.10 152.44 223.72 152.54 220.34 M 153.80 221.57 C 153.75 224.13 153.77 226.69 153.84 229.25 C 155.77 228.65 158.04 227.66 157.57 225.20 C 157.87 222.83 155.53 222.24 153.80 221.57 Z" />
</g>
<g id="#11a958ff">
<path fill="#11a958" opacity="1.00" d=" M 109.02 117.23 C 114.13 87.37 119.18 57.49 124.45 27.66 C 126.78 39.78 129.04 51.92 131.36 64.05 C 134.88 81.73 136.70 99.72 140.72 117.30 C 159.73 92.42 178.90 67.66 197.63 42.56 C 199.65 39.90 201.68 37.24 204.02 34.85 C 201.45 41.70 197.88 48.10 194.61 54.62 C 176.39 91.18 158.25 127.78 140.49 164.56 C 135.34 174.85 130.74 185.47 124.48 195.15 C 98.64 142.18 72.73 89.24 47.09 36.17 C 65.24 59.94 83.13 83.91 101.29 107.67 C 103.79 110.92 106.28 114.18 109.02 117.23 Z" />
<path fill="#11a958" opacity="1.00" d=" M 26.11 211.16 C 92.29 211.15 158.46 211.18 224.63 211.15 C 224.64 223.70 224.64 236.25 224.63 248.80 C 158.46 248.76 92.29 248.79 26.12 248.78 C 26.09 236.24 26.09 223.70 26.11 211.16 M 80.97 216.99 C 79.69 218.60 80.79 220.37 81.58 221.90 C 79.63 223.48 77.69 225.09 75.76 226.70 C 75.75 225.14 75.75 223.58 75.76 222.02 C 77.55 221.04 79.70 219.23 77.85 217.16 C 73.67 216.27 69.23 216.70 64.97 216.87 C 62.89 217.03 63.73 219.74 63.76 221.09 C 64.51 221.18 66.02 221.37 66.78 221.46 C 66.78 227.80 66.80 234.13 66.77 240.47 C 66.00 240.57 64.45 240.77 63.68 240.87 C 63.78 242.18 62.90 244.75 64.87 245.02 C 69.41 245.46 74.03 245.35 78.56 244.77 C 83.48 245.52 88.46 245.14 93.41 245.19 C 93.42 243.83 94.76 241.83 92.94 241.18 C 87.83 238.30 85.26 232.75 81.61 228.41 C 84.86 225.64 88.03 222.70 91.87 220.75 C 93.67 219.93 92.90 216.50 90.91 216.78 C 87.60 216.65 84.25 216.47 80.97 216.99 M 100.04 217.11 C 95.07 219.57 93.61 226.70 97.28 230.90 C 94.08 234.50 95.26 239.60 95.33 243.99 C 95.30 245.22 96.82 245.50 97.54 246.24 C 98.01 245.77 98.95 244.83 99.42 244.36 C 103.47 246.25 108.77 246.52 112.08 243.06 C 116.31 239.29 115.67 232.17 111.32 228.74 C 114.25 227.61 113.43 224.41 113.46 221.95 C 113.36 219.65 113.78 216.78 111.27 215.60 C 110.82 216.06 109.93 216.99 109.49 217.46 C 106.51 216.28 103.00 215.38 100.04 217.11 M 117.99 216.92 C 115.81 218.91 117.81 221.63 120.30 221.81 C 120.36 227.91 120.36 234.01 120.30 240.12 C 118.92 240.75 116.75 240.97 117.08 243.03 C 117.03 245.86 120.15 245.11 122.03 245.23 C 125.28 245.11 128.63 245.61 131.81 244.78 C 133.31 242.50 131.49 240.35 129.08 240.17 C 129.08 238.20 129.07 236.24 129.05 234.28 C 131.98 233.87 135.28 233.73 137.51 231.50 C 140.93 228.42 141.03 222.43 137.58 219.33 C 135.08 216.86 131.33 216.73 128.03 216.70 C 124.69 216.76 121.32 216.48 117.99 216.92 M 171.55 216.88 C 169.83 217.60 170.73 219.71 170.67 221.12 C 171.41 221.18 172.88 221.29 173.61 221.35 C 173.71 227.64 173.69 233.94 173.62 240.23 C 172.43 240.73 171.24 241.24 170.06 241.78 C 166.75 239.60 164.81 236.11 162.66 232.91 C 164.28 231.17 166.22 229.40 166.49 226.89 C 167.40 222.25 163.83 217.31 159.05 217.01 C 153.73 216.55 148.34 216.58 143.01 216.86 C 140.02 218.16 142.30 221.79 144.87 221.85 C 144.88 227.93 144.88 234.01 144.87 240.09 C 142.58 240.44 140.48 242.55 142.21 244.80 C 146.76 245.61 151.47 245.23 156.06 245.04 C 158.36 243.00 156.16 240.42 153.75 240.08 C 153.76 238.62 153.77 237.16 153.80 235.71 C 156.13 238.61 157.91 241.92 160.32 244.76 C 163.52 245.79 167.12 245.28 170.36 244.52 C 175.13 245.74 180.18 245.25 185.04 245.02 C 187.26 243.05 185.24 240.21 182.69 240.14 C 182.64 234.02 182.64 227.89 182.70 221.76 C 185.21 221.68 187.36 218.87 185.03 216.91 C 180.56 216.54 176.02 216.58 171.55 216.88 M 191.93 217.98 C 187.32 221.36 187.41 228.74 191.77 232.31 C 191.12 232.29 189.83 232.24 189.18 232.22 C 188.14 235.99 188.33 239.97 188.55 243.84 C 188.49 245.14 189.99 245.55 190.77 246.29 C 191.20 245.80 192.07 244.83 192.51 244.35 C 194.96 245.15 197.53 246.18 200.17 245.66 C 205.08 244.95 208.94 239.97 208.12 235.01 C 207.98 232.44 206.14 230.52 204.53 228.71 C 205.06 228.29 206.13 227.44 206.67 227.02 C 206.87 223.81 206.81 220.56 206.35 217.39 C 205.70 215.22 203.63 216.52 202.34 217.23 C 198.97 215.99 194.87 215.44 191.93 217.98 M 36.55 219.02 C 36.51 220.99 38.61 221.18 39.98 221.77 C 40.19 227.90 40.01 234.04 39.90 240.18 C 37.56 240.36 35.46 242.58 37.22 244.80 C 44.39 245.64 51.75 245.18 58.98 245.04 C 61.42 242.68 60.72 238.20 61.18 234.95 C 60.89 234.55 60.31 233.74 60.02 233.34 C 56.83 233.24 57.17 237.68 54.78 238.94 C 52.97 239.84 50.87 239.77 48.91 240.06 C 48.89 237.87 48.90 235.68 49.02 233.50 C 50.13 235.54 51.30 241.40 54.33 238.06 C 54.84 233.28 54.42 228.45 54.49 223.65 C 55.55 225.32 56.08 229.17 58.81 227.71 C 60.22 224.47 59.99 220.28 58.91 216.94 C 53.30 216.41 47.65 216.87 42.02 216.68 C 40.04 216.83 36.57 216.02 36.55 219.02 Z" />
<path fill="#11a958" opacity="1.00" d=" M 127.70 220.14 C 129.14 220.73 131.01 220.77 131.94 222.20 C 132.66 224.29 132.65 226.63 131.89 228.71 C 130.98 230.10 129.13 230.15 127.75 230.76 C 127.65 227.22 127.64 223.68 127.70 220.14 Z" />
<path fill="#11a958" opacity="1.00" d=" M 48.84 222.16 C 49.55 222.10 50.97 221.98 51.68 221.92 C 50.83 224.02 50.01 226.14 49.05 228.21 C 48.94 226.19 48.88 224.18 48.84 222.16 Z" />
<path fill="#11a958" opacity="1.00" d=" M 101.55 222.67 C 105.58 219.42 109.48 223.94 110.14 227.82 C 107.11 226.40 104.18 224.75 101.55 222.67 Z" />
<path fill="#11a958" opacity="1.00" d=" M 153.80 221.57 C 155.53 222.24 157.87 222.83 157.57 225.20 C 158.04 227.66 155.77 228.65 153.84 229.25 C 153.77 226.69 153.75 224.13 153.80 221.57 Z" />
<path fill="#11a958" opacity="1.00" d=" M 195.18 222.90 C 198.67 218.91 202.75 224.39 203.45 227.84 C 200.57 226.42 197.59 225.08 195.18 222.90 Z" />
<path fill="#11a958" opacity="1.00" d=" M 103.10 240.06 C 99.95 238.70 99.40 235.00 98.40 232.12 C 101.60 234.68 105.59 236.09 108.46 239.09 C 106.78 239.85 104.93 241.35 103.10 240.06 Z" />
<path fill="#11a958" opacity="1.00" d=" M 192.30 235.21 C 192.85 234.66 193.42 234.12 193.99 233.59 C 196.46 235.40 199.52 236.53 201.36 239.10 C 197.98 242.76 193.49 238.73 192.30 235.21 Z" />
<path fill="#11a958" opacity="1.00" d=" M 75.84 235.64 C 77.32 237.49 78.77 239.41 79.65 241.64 C 78.33 241.19 77.01 240.73 75.70 240.26 C 75.73 239.10 75.80 236.80 75.84 235.64 Z" />
</g>
</svg>
